<svg xmlns="http://www.w3.org/2000/svg" width="17.521" height="17.521" viewBox="0 0 17.521 17.521">
  <path id="Path_120367" data-name="Path 120367" d="M340.927,165.24l2.22-.45a.981.981,0,0,0,0-1.923l-2.22-.45a5.557,5.557,0,0,1-4.342-4.342l-.45-2.221a.981.981,0,0,0-1.923,0l-.45,2.221a5.557,5.557,0,0,1-4.342,4.342l-2.22.45a.981.981,0,0,0,0,1.923l2.22.45a5.557,5.557,0,0,1,4.342,4.342l.45,2.221a.981.981,0,0,0,1.923,0l.45-2.221A5.557,5.557,0,0,1,340.927,165.24Z" transform="translate(-326.413 -155.067)" fill="#edb89b"/>
</svg>
