<svg id="document_1_" data-name="document (1)" xmlns="http://www.w3.org/2000/svg" width="35.729" height="48.286" viewBox="0 0 35.729 48.286">
  <path id="Path_120352" data-name="Path 120352" d="M100.558,11.507l-7.05-7.05a4.981,4.981,0,0,0-3.545-1.468h-7.3V1.782A1.784,1.784,0,0,0,80.886,0H75.345a1.784,1.784,0,0,0-1.782,1.782V2.989H70.157A3.864,3.864,0,0,0,66.3,6.849V20.1a.71.71,0,0,0,1.421,0V6.849A2.442,2.442,0,0,1,70.157,4.41h3.405V15.955a1.578,1.578,0,0,0,.92,1.444,1.6,1.6,0,0,0,.677.152,1.583,1.583,0,0,0,1.02-.376L78,15.643a.172.172,0,0,1,.222,0l1.825,1.532a1.593,1.593,0,0,0,2.617-1.22V4.41s7.432,0,7.5.006v6.573a3.864,3.864,0,0,0,3.859,3.859H100.6c0,.068.006,18.683.006,18.683a.71.71,0,0,0,1.421,0V15.052a4.98,4.98,0,0,0-1.468-3.545ZM81.248,15.955a.172.172,0,0,1-.283.132L79.14,14.555a1.59,1.59,0,0,0-2.048,0l-1.825,1.532a.172.172,0,0,1-.283-.132V1.782a.362.362,0,0,1,.361-.361h5.541a.362.362,0,0,1,.361.361V15.955Zm12.78-2.528a2.442,2.442,0,0,1-2.439-2.439V4.8a3.6,3.6,0,0,1,.916.665l7.05,7.05a3.6,3.6,0,0,1,.665.916H94.027Z" transform="translate(-66.298 0)" fill="#070219"/>
  <path id="Path_120353" data-name="Path 120353" d="M101.316,248.18a.71.71,0,0,0-.71.71v8.055a2.442,2.442,0,0,1-2.439,2.439H70.157a2.442,2.442,0,0,1-2.439-2.439V235.46a.71.71,0,1,0-1.421,0v21.484a3.864,3.864,0,0,0,3.859,3.859h28.01a3.864,3.864,0,0,0,3.859-3.859V248.89A.71.71,0,0,0,101.316,248.18Z" transform="translate(-66.298 -212.518)" fill="#070219"/>
  <path id="Path_120354" data-name="Path 120354" d="M143.717,247.781H163.5a.71.71,0,0,0,0-1.421H143.717a.71.71,0,0,0,0,1.421Z" transform="translate(-135.742 -223.029)" fill="#070219"/>
  <path id="Path_120355" data-name="Path 120355" d="M143.717,309.215H163.5a.71.71,0,0,0,0-1.421H143.717a.71.71,0,0,0,0,1.421Z" transform="translate(-135.742 -278.644)" fill="#070219"/>
  <path id="Path_120356" data-name="Path 120356" d="M143.717,370.649h9.889a.71.71,0,1,0,0-1.421h-9.889a.71.71,0,1,0,0,1.421Z" transform="translate(-135.742 -334.26)" fill="#070219"/>
</svg>
