<svg xmlns="http://www.w3.org/2000/svg" width="43.541" height="48.285" viewBox="0 0 43.541 48.285">
  <g id="language" transform="translate(-25.153)">
    <g id="Group_45694" data-name="Group 45694" transform="translate(33.671 7.526)">
      <path id="Контур_120357" data-name="Контур 120357" d="M123.628,90.645a.707.707,0,0,1-.662-.458l-3.047-8.075-3.076,8.076a.707.707,0,1,1-1.322-.5l3.541-9.3a.921.921,0,0,1,1.711-.018l3.517,9.318a.708.708,0,0,1-.662.957Z" transform="translate(-115.475 -79.799)" fill="#070219"/>
      <path id="Линия_6" data-name="Линия 6" d="M-1.538-6.085H-6.793A.707.707,0,0,1-7.5-6.793.707.707,0,0,1-6.793-7.5h5.255a.707.707,0,0,1,.707.707A.707.707,0,0,1-1.538-6.085Z" transform="translate(8.605 14.615)" fill="#070219"/>
    </g>
    <path id="Контур_120358" data-name="Контур 120358" d="M356.148,82.549a.707.707,0,0,1-.707-.707V76.349a1.652,1.652,0,0,0-1.65-1.65h-4.922a.707.707,0,1,1,0-1.415h4.922a3.068,3.068,0,0,1,3.065,3.065v5.492A.707.707,0,0,1,356.148,82.549Z" transform="translate(-292.546 -66.373)" fill="#070219"/>
    <path id="Контур_120359" data-name="Контур 120359" d="M348.965,57.132a.7.7,0,0,1-.493-.2l-2.1-2.042a.707.707,0,0,1,0-1.014l2.1-2.042a.707.707,0,1,1,.987,1.014l-1.577,1.535,1.577,1.535a.707.707,0,0,1-.493,1.214Z" transform="translate(-290.735 -46.765)" fill="#070219"/>
    <g id="Group_45695" data-name="Group 45695" transform="translate(29.538 32.109)">
      <path id="Контур_120360" data-name="Контур 120360" d="M79.544,349.742H74.717a3.068,3.068,0,0,1-3.065-3.065v-5.492a.707.707,0,1,1,1.415,0v5.492a1.652,1.652,0,0,0,1.65,1.65h4.827a.707.707,0,0,1,0,1.415Z" transform="translate(-71.652 -340.477)" fill="#070219"/>
      <path id="Контур_120361" data-name="Контур 120361" d="M129.309,407.563a.707.707,0,0,1-.493-1.214l1.577-1.535-1.577-1.535a.707.707,0,1,1,.987-1.014l2.1,2.042a.707.707,0,0,1,0,1.014l-2.1,2.042A.7.7,0,0,1,129.309,407.563Z" transform="translate(-123.231 -396.257)" fill="#070219"/>
    </g>
    <g id="Group_45696" data-name="Group 45696" transform="translate(51.243 25.17)">
      <path id="Линия_7" data-name="Линия 7" d="M-6.793-4.015A.707.707,0,0,1-7.5-4.722V-6.793A.707.707,0,0,1-6.793-7.5a.707.707,0,0,1,.707.707v2.071A.707.707,0,0,1-6.793-4.015Z" transform="translate(11.296 7.5)" fill="#070219"/>
      <path id="Линия_8" data-name="Линия 8" d="M.8-6.085H-6.793A.707.707,0,0,1-7.5-6.793.707.707,0,0,1-6.793-7.5H.8a.707.707,0,0,1,.707.707A.707.707,0,0,1,.8-6.085Z" transform="translate(7.5 9.571)" fill="#070219"/>
      <path id="Контур_120362" data-name="Контур 120362" d="M308.989,297.627a.707.707,0,0,1-.2-1.386c4.81-1.409,4.731-6.61,4.73-6.663a.707.707,0,0,1,1.414-.037c0,.063.1,6.345-5.746,8.057A.709.709,0,0,1,308.989,297.627Z" transform="translate(-307.671 -286.781)" fill="#070219"/>
      <path id="Контур_120363" data-name="Контур 120363" d="M326.213,297.634a.707.707,0,0,1-.2-.029c-5.842-1.711-5.748-7.994-5.746-8.057a.707.707,0,0,1,1.414.035c0,.214-.056,5.262,4.73,6.664a.707.707,0,0,1-.2,1.386Z" transform="translate(-318.526 -286.789)" fill="#070219"/>
    </g>
    <path id="Контур_120364" data-name="Контур 120364" d="M212.955,200.893a.707.707,0,0,1-.707-.707v-9.744a3.35,3.35,0,0,1,3.346-3.346h11.039a.707.707,0,0,1,0,1.415H215.594a1.934,1.934,0,0,0-1.932,1.932v9.744A.707.707,0,0,1,212.955,200.893Z" transform="translate(-169.451 -169.451)" fill="#070219"/>
    <path id="Контур_120365" data-name="Контур 120365" d="M230.325,217.735a1.021,1.021,0,0,1-.723-.3l-4.342-4.342a.346.346,0,0,0-.246-.1H215.6a3.35,3.35,0,0,1-3.346-3.346v-6.37a.707.707,0,0,1,1.415,0v6.37a1.934,1.934,0,0,0,1.932,1.932h9.419a1.751,1.751,0,0,1,1.247.516l3.675,3.675v-2.956a1.236,1.236,0,0,1,1.235-1.235H234.8a1.934,1.934,0,0,0,1.932-1.932v-19.2a1.934,1.934,0,0,0-1.932-1.932h-5.1a.707.707,0,1,1,0-1.415h5.1a3.35,3.35,0,0,1,3.346,3.346v19.2a3.35,3.35,0,0,1-3.346,3.346h-3.449v3.72a1.026,1.026,0,0,1-1.025,1.024Z" transform="translate(-169.451 -169.45)" fill="#070219"/>
    <path id="Контур_120366" data-name="Контур 120366" d="M32.974,122.535a1.026,1.026,0,0,1-1.025-1.025v-3.72H28.5a3.35,3.35,0,0,1-3.346-3.346V102.17a.707.707,0,1,1,1.415,0v12.274a1.934,1.934,0,0,0,1.932,1.932h3.628a1.236,1.236,0,0,1,1.235,1.235v2.956l3.675-3.675a1.751,1.751,0,0,1,1.247-.516h5.069a.707.707,0,0,1,0,1.415H38.285a.346.346,0,0,0-.246.1L33.7,122.235A1.021,1.021,0,0,1,32.974,122.535Z" transform="translate(-0.001 -91.894)" fill="#070219"/>
    <path id="Контур_120367" data-name="Контур 120367" d="M50.342,18.9a.707.707,0,0,1-.707-.707V3.346A1.934,1.934,0,0,0,47.7,1.415H28.5a1.934,1.934,0,0,0-1.932,1.932V7.193a.707.707,0,1,1-1.415,0V3.346A3.35,3.35,0,0,1,28.5,0H47.7A3.35,3.35,0,0,1,51.05,3.346V18.19A.707.707,0,0,1,50.342,18.9Z" fill="#070219"/>
  </g>
</svg>
