<svg xmlns="http://www.w3.org/2000/svg" width="45.156" height="48.285" viewBox="0 0 45.156 48.285">
  <g id="g3135" transform="translate(-22.132 682.664)">
    <path id="path3147" d="M-170.525-378.653a3.954,3.954,0,0,1-1.412-.261,3.972,3.972,0,0,1-2.3-5.12l8.6-22.572a.707.707,0,0,1,.913-.409.707.707,0,0,1,.409.913l-8.6,22.572a2.556,2.556,0,0,0,1.477,3.295,2.543,2.543,0,0,0,.908.168,2.568,2.568,0,0,0,2.387-1.645l2.843-7.466a.707.707,0,0,1,.661-.456h7.9a.707.707,0,0,1,.707.707.707.707,0,0,1-.707.707h-7.416l-2.67,7.01A3.991,3.991,0,0,1-170.525-378.653Zm23.719-9.567h-7.1a.707.707,0,0,1-.707-.707.707.707,0,0,1,.707-.707h7.1a.707.707,0,0,1,.707.707A.707.707,0,0,1-146.805-388.22Zm5.955-5.8a.708.708,0,0,1-.662-.458l-10.361-27.453L-151.9-422a3.426,3.426,0,0,0-3.179-2.131,3.426,3.426,0,0,0-3.18,2.135l-5.2,13.64a.707.707,0,0,1-.913.409.707.707,0,0,1-.409-.913l5.173-13.582.035-.089a4.835,4.835,0,0,1,4.486-3.016,4.836,4.836,0,0,1,4.491,3.005l.043.108,10.361,27.454a.707.707,0,0,1-.412.911A.7.7,0,0,1-140.85-394.024Zm-7.241-.717H-162.15a.707.707,0,0,1-.582-.306.707.707,0,0,1-.079-.653l7.062-18.541a.705.705,0,0,1,.662-.456.707.707,0,0,1,.661.458l7,18.541a.707.707,0,0,1-.08.652A.707.707,0,0,1-148.091-394.741Zm-13.033-1.415h12.01l-5.977-15.839Z" transform="translate(196.624 -257.116)" fill="#070219"/>
    <path id="path3151" d="M-237.887-128.488A9.1,9.1,0,0,1-228.8-119.4a9.1,9.1,0,0,1-9.088,9.088,9.1,9.1,0,0,1-9.088-9.088A9.1,9.1,0,0,1-237.887-128.488Zm0,16.762a7.682,7.682,0,0,0,7.673-7.673,7.682,7.682,0,0,0-7.673-7.673,7.682,7.682,0,0,0-7.673,7.673A7.682,7.682,0,0,0-237.887-111.726Z" transform="translate(296.087 -524.067)" fill="#070219"/>
    <path id="path3155" d="M-122.669-2.533h0a.707.707,0,0,1-.5-.207l-2.117-2.117a.707.707,0,0,1,0-1,.707.707,0,0,1,1,0l1.617,1.617,5.552-5.552a.707.707,0,0,1,1,0,.707.707,0,0,1,0,1l-6.052,6.052A.707.707,0,0,1-122.669-2.533Z" transform="translate(178.901 -637.184)" fill="#070219"/>
  </g>
</svg>
